<svg aria-hidden="true" style="position: absolute; width: 0; height: 0; overflow: hidden;" version="1.1" xmlns="http://www.w3.org/2000/svg" xmlns:xlink="http://www.w3.org/1999/xlink">
    <defs>
        <symbol id="location" viewBox="0 0 31 32">
            <path fill="#fe390c" style="fill: var(--color1, #fe390c)" d="M15.36 2.195c-6.352 0-11.52 5.026-11.52 11.204 0 7.119 4.75 11.414 7.9 14.257 1.002 0.947 2.317 1.42 3.628 1.42 1.309 0 2.615-0.471 3.602-1.41 3.15-2.842 7.91-7.14 7.91-14.266 0-6.178-5.168-11.204-11.52-11.204zM15.36 17.881c-2.541 0-4.608-2.011-4.608-4.482s2.067-4.482 4.608-4.482c2.541 0 4.608 2.011 4.608 4.482s-2.067 4.482-4.608 4.482z"></path>
        </symbol>
        <symbol id="message" viewBox="0 0 31 32">
            <path fill="#fe390c" style="fill: var(--color1, #fe390c)" d="M21.682 4.755c1.716 0 3.368 0.678 4.582 1.896 1.216 1.215 1.896 2.853 1.896 4.568v10.112c0 3.571-2.906 6.464-6.478 6.464h-12.645c-3.572 0-6.477-2.893-6.477-6.464v-10.112c0-3.571 2.892-6.464 6.477-6.464h12.645zM23.13 11.411c-0.269-0.014-0.525 0.077-0.718 0.256l-5.772 4.608c-0.742 0.616-1.806 0.616-2.56 0l-5.76-4.608c-0.398-0.294-0.948-0.256-1.28 0.090-0.346 0.346-0.384 0.896-0.091 1.28l0.168 0.166 5.824 4.544c0.717 0.563 1.586 0.87 2.496 0.87 0.908 0 1.792-0.307 2.508-0.87l5.774-4.621 0.102-0.102c0.306-0.371 0.306-0.909-0.014-1.28-0.178-0.191-0.422-0.307-0.677-0.333z"></path>
        </symbol>
        <symbol id="call" viewBox="0 0 31 32">
            <path fill="#fe390c" style="fill: var(--color1, #fe390c)" d="M14.761 16.88c5.106 5.105 6.264-0.801 9.515 2.448 3.134 3.133 4.936 3.761 0.965 7.731-0.497 0.4-3.658 5.209-14.764-5.894-11.108-11.105-6.301-14.268-5.902-14.766 3.981-3.981 4.598-2.169 7.732 0.964 3.251 3.25-2.652 4.412 2.454 9.517z"></path>
        </symbol>
        <symbol id="arrow" viewBox="0 0 32 32">
            <path fill="#fff" style="fill: var(--color2, #fff)" d="M26.667 15.634c0-0.506-0.376-0.925-0.864-0.991l-0.136-0.009-17.579 0.001 6.351-6.325c0.391-0.39 0.393-1.023 0.003-1.414-0.354-0.356-0.91-0.389-1.302-0.1l-0.112 0.097-8.067 8.032c-0.052 0.051-0.096 0.107-0.134 0.166-0.011 0.018-0.022 0.036-0.032 0.054-0.010 0.016-0.018 0.032-0.026 0.049-0.011 0.024-0.022 0.049-0.032 0.075-0.008 0.020-0.015 0.039-0.021 0.058-0.007 0.024-0.014 0.049-0.021 0.075-0.005 0.018-0.008 0.035-0.011 0.053-0.004 0.026-0.008 0.053-0.011 0.080-0.002 0.021-0.004 0.041-0.005 0.062-0 0.012-0 0.025-0 0.039l0 0.039c0.001 0.020 0.002 0.039 0.004 0.059l-0.005-0.098c0 0.063 0.006 0.125 0.017 0.185 0.003 0.014 0.006 0.029 0.009 0.044 0.007 0.030 0.015 0.059 0.025 0.088 0.005 0.014 0.010 0.029 0.016 0.044 0.012 0.030 0.024 0.059 0.038 0.087 0.006 0.013 0.014 0.027 0.021 0.040 0.013 0.022 0.025 0.043 0.039 0.064 0.010 0.015 0.020 0.030 0.031 0.045l0.009 0.012c0.027 0.035 0.056 0.069 0.087 0.1l0.001 0.001 8.067 8.033c0.391 0.39 1.024 0.388 1.414-0.003 0.354-0.356 0.385-0.911 0.094-1.302l-0.097-0.112-6.348-6.323 17.576-0.001c0.552 0 1-0.448 1-1z"></path>
        </symbol>
        <symbol id="activity" viewBox="0 0 31 32" fill="currentColor">
            <path d="M19.261 3.739c0.535 0 0.97 0.435 0.97 0.97s-0.434 0.97-0.97 0.97h-9.397c-3.243 0-5.339 2.229-5.339 5.682v10.452c0 3.498 2.045 5.671 5.339 5.671h11.124c3.243 0 5.338-2.226 5.338-5.671v-9.103c0-0.535 0.434-0.97 0.97-0.97s0.97 0.435 0.97 0.97v9.103c0 4.552-2.925 7.611-7.278 7.611h-11.124c-4.353 0-7.278-3.058-7.278-7.611v-10.452c0-4.559 2.925-7.622 7.278-7.622h9.397zM21.996 12.572c0.424 0.329 0.502 0.938 0.173 1.361l-3.788 4.888c-0.158 0.204-0.39 0.337-0.646 0.369-0.259 0.035-0.515-0.040-0.719-0.199l-3.643-2.863-3.272 4.253c-0.191 0.248-0.478 0.379-0.769 0.379-0.207 0-0.415-0.066-0.591-0.2-0.424-0.327-0.504-0.936-0.177-1.361l3.87-5.031c0.158-0.206 0.392-0.339 0.648-0.371 0.261-0.034 0.517 0.039 0.72 0.2l3.646 2.864 3.19-4.116c0.328-0.425 0.936-0.504 1.36-0.173zM25.816 2.65c1.906 0 3.455 1.549 3.455 3.455s-1.549 3.457-3.455 3.457c-1.904 0-3.455-1.551-3.455-3.457s1.55-3.455 3.455-3.455zM25.816 4.59c-0.835 0-1.515 0.679-1.515 1.516 0 0.835 0.68 1.517 1.515 1.517s1.515-0.682 1.515-1.517c0-0.837-0.68-1.516-1.515-1.516z"></path>
        </symbol>
        <symbol id="chart" viewBox="0 0 31 32" fill="currentColor">
            <path d="M21.251 1.357c4.689 0 7.84 3.293 7.84 8.193v11.419c0 4.9-3.151 8.193-7.84 8.193h-12.117c-4.689 0-7.84-3.293-7.84-8.193v-11.419c0-4.9 3.151-8.193 7.84-8.193h12.117zM21.251 3.297h-12.117c-3.584 0-5.901 2.453-5.901 6.253v11.419c0 3.8 2.317 6.253 5.901 6.253h12.117c3.585 0 5.901-2.453 5.901-6.253v-11.419c0-3.8-2.316-6.253-5.901-6.253zM9.207 11.965c0.535 0 0.97 0.435 0.97 0.97v8.872c0 0.535-0.434 0.97-0.97 0.97s-0.97-0.435-0.97-0.97v-8.872c0-0.535 0.434-0.97 0.97-0.97zM15.241 7.718c0.535 0 0.97 0.435 0.97 0.97v13.117c0 0.535-0.434 0.97-0.97 0.97s-0.97-0.435-0.97-0.97v-13.117c0-0.535 0.434-0.97 0.97-0.97zM21.176 16.653c0.535 0 0.97 0.435 0.97 0.97v4.182c0 0.535-0.434 0.97-0.97 0.97s-0.97-0.435-0.97-0.97v-4.182c0-0.535 0.434-0.97 0.97-0.97z"></path>
        </symbol>
        <symbol id="category" viewBox="0 0 31 32" fill="currentColor">
            <path d="M8.081 16.876c5.261 0 5.495 1.785 5.495 5.496 0 1.86 0 3.183-0.781 4.151-0.899 1.116-2.534 1.345-4.714 1.345s-3.815-0.229-4.714-1.345c-0.781-0.969-0.781-2.29-0.781-4.119l0.97-0.032h-0.97c0-3.712 0.234-5.496 5.495-5.496zM22.303 16.876c5.261 0 5.495 1.785 5.495 5.496 0 1.86 0 3.183-0.781 4.151-0.899 1.116-2.534 1.345-4.714 1.345s-3.815-0.229-4.714-1.345c-0.781-0.969-0.781-2.29-0.781-4.119l0.97-0.032h-0.97c0-3.712 0.234-5.496 5.495-5.496zM8.347 18.816l-0.267-0.001c-3.373 0-3.546 0.242-3.555 3.074l0.001 1.103c0.006 1.126 0.049 1.94 0.349 2.315 0.343 0.424 1.36 0.621 3.205 0.621s2.863-0.198 3.205-0.622c0.35-0.436 0.35-1.47 0.35-2.903 0-3.233 0-3.572-3.289-3.587zM22.57 18.816l-0.266-0.001c-3.373 0-3.546 0.242-3.555 3.074l0 1.103c0.006 1.126 0.049 1.94 0.349 2.315 0.343 0.424 1.36 0.621 3.205 0.621s2.863-0.198 3.205-0.622c0.35-0.436 0.35-1.47 0.35-2.903 0-3.233 0-3.572-3.289-3.587zM8.081 2.65c5.261 0 5.495 1.785 5.495 5.496 0 1.86 0 3.183-0.781 4.151-0.899 1.116-2.534 1.345-4.714 1.345s-3.815-0.229-4.714-1.345c-0.781-0.969-0.781-2.29-0.781-4.119l0.97-0.032h-0.97c0-3.712 0.234-5.496 5.495-5.496zM22.303 2.65c5.261 0 5.495 1.785 5.495 5.496 0 1.86 0 3.183-0.781 4.151-0.899 1.116-2.534 1.345-4.714 1.345s-3.815-0.229-4.714-1.345c-0.781-0.969-0.781-2.29-0.781-4.119l0.97-0.032h-0.97c0-3.712 0.234-5.496 5.495-5.496zM8.347 4.59l-0.267-0.001c-3.373 0-3.546 0.242-3.555 3.074l0.001 1.103c0.006 1.126 0.049 1.94 0.349 2.315 0.343 0.424 1.36 0.621 3.205 0.621s2.863-0.198 3.205-0.622c0.35-0.436 0.35-1.47 0.35-2.903 0-3.233 0-3.572-3.289-3.587zM22.57 4.59l-0.266-0.001c-3.373 0-3.546 0.242-3.555 3.074l0 1.103c0.006 1.126 0.049 1.94 0.349 2.315 0.343 0.424 1.36 0.621 3.205 0.621s2.863-0.198 3.205-0.622c0.35-0.436 0.35-1.47 0.35-2.903 0-3.233 0-3.572-3.289-3.587z"></path>
        </symbol>
        <symbol id="edit" viewBox="0 0 31 32" fill="currentColor">
            <path d="M14.858 2.698c0.535 0 0.97 0.435 0.97 0.97s-0.434 0.97-0.97 0.97h-4.834c-3.341 0-5.499 2.289-5.499 5.831v10.752c0 3.542 2.158 5.831 5.499 5.831h11.409c3.341 0 5.5-2.289 5.5-5.831v-5.209c0-0.535 0.434-0.97 0.97-0.97s0.97 0.435 0.97 0.97v5.209c0 4.648-2.991 7.771-7.439 7.771h-11.409c-4.449 0-7.438-3.123-7.438-7.771v-10.752c0-4.648 2.989-7.771 7.438-7.771h4.834zM26.119 3.834l1.574 1.574c0.767 0.766 1.188 1.783 1.187 2.867 0 1.084-0.422 2.1-1.187 2.864l-9.709 9.711c-0.712 0.713-1.661 1.106-2.67 1.106h-4.843c-0.261 0-0.512-0.106-0.694-0.294-0.182-0.186-0.282-0.438-0.275-0.701l0.122-4.887c0.025-0.973 0.416-1.887 1.104-2.576h0.001l9.662-9.664c1.58-1.578 4.149-1.578 5.729 0zM19.594 7.372l-7.496 7.498c-0.335 0.335-0.525 0.78-0.537 1.252l-0.097 3.894h3.849c0.491 0 0.952-0.19 1.299-0.538l7.541-7.545-4.56-4.561zM21.761 5.206l-0.796 0.794 4.56 4.563 0.797-0.795c0.398-0.398 0.618-0.929 0.618-1.492 0-0.565-0.22-1.097-0.618-1.495l-1.573-1.574c-0.824-0.821-2.163-0.821-2.988 0z"></path>
        </symbol>
        <symbol id="download" viewBox="0 0 32 32">
            <path fill="#fe390c" style="fill: var(--color1, #fe390c)" d="M24 20v4h-16v-4h-2.667v4c0 1.467 1.2 2.667 2.667 2.667h16c1.467 0 2.667-1.2 2.667-2.667v-4h-2.667zM22.667 14.667l-1.88-1.88-3.453 3.44v-10.893h-2.667v10.893l-3.453-3.44-1.88 1.88 6.667 6.667 6.667-6.667z"></path>
        </symbol>
        <symbol id="github" viewBox="0 0 120 32">
            <path fill="#a7aab4" style="fill: var(--color3, #a7aab4)" d="M22.947 13.655h-10.012c-0.258 0-0.468 0.208-0.468 0.464v4.847c0 0.256 0.21 0.464 0.468 0.464h3.906v6.022c0 0-0.877 0.296-3.302 0.296-2.86 0-6.856-1.035-6.856-9.735 0-8.702 4.161-9.847 8.067-9.847 3.381 0 4.838 0.59 5.765 0.873 0.291 0.088 0.561-0.199 0.561-0.455l1.117-4.683c0-0.12-0.041-0.264-0.179-0.362-0.376-0.266-2.673-1.538-8.475-1.538-6.684 0-13.539 2.816-13.539 16.351s7.849 15.552 14.464 15.552c5.477 0 8.799-2.317 8.799-2.317 0.137-0.075 0.152-0.264 0.152-0.351v-15.116c0-0.256-0.209-0.464-0.468-0.464zM74.515 1.694c0-0.258-0.206-0.466-0.465-0.466h-5.637c-0.257 0-0.467 0.208-0.467 0.466 0 0.001 0.001 10.787 0.001 10.787h-8.787v-10.787c0-0.258-0.207-0.466-0.465-0.466h-5.637c-0.257 0-0.466 0.208-0.466 0.466v29.208c0 0.258 0.209 0.467 0.466 0.467h5.637c0.258 0 0.465-0.21 0.465-0.467v-12.493h8.787c0 0-0.015 12.492-0.015 12.493 0 0.258 0.209 0.467 0.467 0.467h5.651c0.258 0 0.465-0.21 0.465-0.467v-29.208zM33.566 5.599c0-2.010-1.627-3.634-3.635-3.634-2.006 0-3.634 1.624-3.634 3.634 0 2.008 1.629 3.636 3.634 3.636 2.008 0 3.635-1.629 3.635-3.636zM33.119 24.756v-13.482c0-0.256-0.209-0.465-0.466-0.465h-5.619c-0.258 0-0.488 0.263-0.488 0.519v19.316c0 0.568 0.357 0.736 0.82 0.736h5.063c0.555 0 0.692-0.27 0.692-0.746v-5.879zM96.060 10.808h-5.594c-0.257 0-0.465 0.209-0.465 0.467v14.322c0 0-1.421 1.029-3.438 1.029s-2.552-0.906-2.552-2.862v-12.489c0-0.258-0.208-0.467-0.465-0.467h-5.677c-0.256 0-0.466 0.209-0.466 0.467v13.435c0 5.809 3.269 7.23 7.767 7.23 3.69 0 6.665-2.018 6.665-2.018s0.142 1.064 0.206 1.19c0.064 0.126 0.231 0.253 0.412 0.253l3.612-0.016c0.256 0 0.466-0.21 0.466-0.466l-0.002-19.607c0-0.258-0.209-0.467-0.467-0.467zM108.949 26.637c-1.94-0.058-3.256-0.93-3.256-0.93v-9.25c0 0 1.298-0.788 2.891-0.929 2.014-0.179 3.955 0.424 3.955 5.182 0 5.018-0.876 6.008-3.59 5.927zM111.155 10.181c-3.177 0-5.338 1.404-5.338 1.404v-9.89c0-0.258-0.208-0.466-0.465-0.466h-5.653c-0.257 0-0.466 0.208-0.466 0.466v29.208c0 0.258 0.209 0.467 0.467 0.467h3.922c0.177 0 0.31-0.090 0.409-0.248 0.097-0.157 0.238-1.347 0.238-1.347s2.312 2.169 6.688 2.169c5.137 0 8.084-2.58 8.084-11.583s-4.705-10.18-7.885-10.18zM49.343 10.758h-4.229c0 0-0.007-5.53-0.007-5.531 0-0.209-0.109-0.314-0.353-0.314h-5.762c-0.224 0-0.344 0.098-0.344 0.311v5.716c0 0-2.888 0.69-3.083 0.746s-0.338 0.233-0.338 0.445v3.592c0 0.258 0.208 0.467 0.466 0.467h2.954v8.641c0 6.418 4.547 7.049 7.615 7.049 1.402 0 3.079-0.446 3.356-0.547 0.167-0.061 0.265-0.233 0.265-0.419l0.005-3.951c0-0.258-0.22-0.466-0.467-0.466-0.246 0-0.877 0.099-1.526 0.099-2.077 0-2.781-0.956-2.781-2.194 0-1.237-0-8.212-0-8.212h4.229c0.258 0 0.466-0.208 0.466-0.467v-4.499c0-0.258-0.209-0.466-0.466-0.466z"></path>
        </symbol>
        <symbol id="twilio" viewBox="0 0 106 32">
            <path fill="#a7aab4" style="fill: var(--color3, #a7aab4)" d="M15.988 0c8.825 0 15.988 7.123 15.988 15.9s-7.162 15.9-15.988 15.9c-8.825 0-15.988-7.123-15.988-15.9s7.162-15.9 15.988-15.9zM15.988 4.198c-6.523 0-11.767 5.215-11.767 11.702s5.244 11.702 11.767 11.702c6.523 0 11.767-5.215 11.767-11.702s-5.244-11.702-11.767-11.702zM98.164 10.748c4.732 0 8.122 3.434 8.122 7.505v0.064c0 4.070-3.389 7.568-8.186 7.568-4.732 0-8.122-3.434-8.122-7.505v-0.064c0-4.070 3.389-7.568 8.186-7.568zM43.103 6.296c0.192-0.064 0.384 0.127 0.384 0.254v4.579h8.505c0.192 0 0.32 0.127 0.384 0.254l0.703 2.608 0.64 2.608 0.064 0.127 0.064-0.254 1.599-5.279c0.064-0.127 0.256-0.254 0.384-0.254h4.221c0.192 0 0.32 0.127 0.384 0.254l1.663 5.66 0.064-0.254 1.407-5.279c0.064-0.127 0.256-0.254 0.384-0.254h10.872c0.128 0 0.256 0.127 0.256 0.318v13.865c0 0.127-0.128 0.254-0.256 0.254h-5.436c-0.128 0-0.256-0.127-0.256-0.254v-13.356l-4.093 13.356c-0.064 0.127-0.256 0.254-0.384 0.254h-4.477c-0.192 0-0.32-0.127-0.384-0.254l-0.895-2.798-0.959-3.053-1.919 5.915c-0.064 0.127-0.256 0.254-0.384 0.254h-4.477c-0.192 0-0.32-0.127-0.384-0.254l-4.029-13.292v3.434c0 0.127-0.128 0.254-0.256 0.254h-3.070v3.625c0 1.081 0.512 1.463 1.471 1.463 0.512 0 0.959-0.064 1.535-0.318 0.128 0 0.32 0.064 0.32 0.254v4.198c-0.959 0.509-2.366 0.827-3.837 0.827-3.517 0-5.436-1.654-5.436-5.152v-4.961h-1.407c-0.128 0-0.256-0.127-0.256-0.254v-4.070c0-0.127 0.128-0.254 0.256-0.254h1.407v-2.862c0-0.127 0.064-0.191 0.256-0.254l5.372-1.654zM81.985 6.233c0.128 0 0.256 0.127 0.256 0.254v18.762c0 0.127-0.128 0.254-0.256 0.254h-5.436c-0.128 0-0.256-0.127-0.256-0.254v-18.762c0-0.127 0.128-0.254 0.256-0.254h5.436zM89.147 11.066c0.128 0 0.256 0.127 0.256 0.318v13.865c0 0.127-0.128 0.254-0.256 0.254h-5.436c-0.128 0-0.256-0.127-0.256-0.254v-13.928c0-0.127 0.128-0.254 0.256-0.254h5.436zM19.953 16.536c1.837 0 3.325 1.481 3.325 3.307s-1.489 3.307-3.325 3.307c-1.837 0-3.325-1.481-3.325-3.307s1.489-3.307 3.325-3.307zM12.023 16.536c1.837 0 3.325 1.481 3.325 3.307s-1.489 3.307-3.325 3.307c-1.837 0-3.325-1.481-3.325-3.307s1.489-3.307 3.325-3.307zM98.1 15.709c-1.343 0-2.302 1.081-2.302 2.48v0.064c0 1.399 1.023 2.544 2.366 2.544s2.302-1.081 2.302-2.48c0-1.463-1.023-2.608-2.366-2.608zM19.953 8.65c1.837 0 3.325 1.481 3.325 3.307s-1.489 3.307-3.325 3.307c-1.837 0-3.325-1.481-3.325-3.307s1.489-3.307 3.325-3.307zM12.023 8.65c1.837 0 3.325 1.481 3.325 3.307s-1.489 3.307-3.325 3.307c-1.837 0-3.325-1.481-3.325-3.307s1.489-3.307 3.325-3.307zM74.886 6.233c0.192 0 0.32 0.127 0.256 0.254v3.244c0 0.127-0.128 0.254-0.256 0.254h-5.628c-0.128 0-0.256-0.127-0.256-0.254v-3.244c0-0.127 0.128-0.254 0.256-0.254h5.628zM89.211 6.233c0.192 0 0.32 0.127 0.256 0.254v3.244c0 0.127-0.128 0.254-0.256 0.254h-5.628c-0.128 0-0.256-0.127-0.256-0.254v-3.244c0-0.127 0.128-0.254 0.256-0.254h5.628z"></path>
        </symbol>
        <symbol id="dribbble-2" viewBox="0 0 135 32">
            <path fill="#a7aab4" style="fill: var(--color3, #a7aab4)" d="M40.886 12.78c1.532 0 2.773-1.207 2.773-2.695s-1.242-2.695-2.773-2.695c-1.532 0-2.773 1.207-2.773 2.695s1.242 2.695 2.773 2.695zM132.406 21.989c-0.423-0.288-0.749-0.336-1.018 0.224-4.657 9.802-12.506 4.911-11.727 5.341 1.742-0.774 6.32-4.342 5.629-9.269-0.421-3.011-3.080-4.347-5.904-3.868-4.927 0.835-6.74 5.999-5.817 10.572 0.162 0.785 0.45 1.433 0.738 2.067-5.568 4.4-7.78-3.939-8.031-4.936-0.010-0.053 4.3-3.544 5.498-11.862 1.256-8.717-1.606-10.305-4.532-10.255-5.415 0.092-6.879 11.086-4.913 20.249-0.164 0.042-0.931 0.454-2.162 0.5-0.886-2.709-4.672-5.084-5.663-4.169-2.48 2.289 0.601 6.764 2.769 7.115-1.302 7.794-9.447 5.864-7.931-3.901 2.652-4.786 4.669-11.902 4.309-16.198-0.127-1.521-1.285-3.559-3.902-3.458-5.034 0.194-5.581 11.191-4.991 18.997-0.029-0.192-0.309 0.948-2.372 1.516-0.488-2.632-4.849-5.274-5.876-4.004-1.922 2.377 1.409 6.616 2.986 6.911-1.302 7.794-9.447 5.864-7.931-3.901 2.652-4.786 4.669-11.902 4.309-16.198-0.127-1.521-1.285-3.559-3.902-3.458-5.034 0.194-5.581 11.191-4.991 18.997-0.030-0.195-0.316 0.983-2.463 1.541-0.072-3.415-4.449-4.98-5.5-3.891-1.874 1.942 0.429 5.927 2.56 6.911-1.302 7.794-9.447 5.864-7.931-3.901 2.652-4.786 4.669-11.902 4.309-16.198-0.127-1.521-1.285-3.559-3.902-3.458-5.034 0.194-5.439 11.744-4.849 19.55-1.658 6.903-7.219 15.524-6.496-1.745 0.071-1.211 0.149-1.672-0.472-2.125-0.466-0.353-1.525-0.183-2.104-0.169-0.704 0.027-0.88 0.428-1.036 1.032-0.362 1.561-0.427 3.075-0.479 5.14-0.034 0.966-0.114 1.417-0.496 2.734s-2.564 3.724-3.759 3.322c-1.657-0.554-1.114-5.099-0.803-8.222 0.259-2.468-0.57-3.576-2.693-3.98-1.243-0.252-1.998-0.213-3.292-0.609-1.224-0.375-1.501-2.625-4.111-1.875-1.428 0.41-0.51 3.35-0.853 5.529-1.687 10.718-5.198 11.012-6.826 5.805 7.335-17.455 2.122-24.337-0.929-24.337-3.178 0-6.811 2.127-5.273 15.738-0.748-0.212-0.978-0.326-1.797-0.326-4.631 0-7.787 3.638-7.787 8.125s3.155 8.126 7.787 8.126c2.734 0 4.653-1.208 6.107-3.077 0.948 1.32 2.103 3.098 4.215 3.017 6.295-0.238 8.127-12.787 8.342-13.486 0.673 0.101 1.31 0.292 1.931 0.392 1.036 0.151 1.111 0.549 1.087 1.562-0.274 8.534 1.346 11.522 5.022 11.522 2.048 0 3.874-1.955 5.132-3.354 0.939 1.884 2.436 3.296 4.444 3.354 4.866 0.117 6.729-7.418 6.559-6.427-0.133 0.778 1.579 6.384 6.588 6.405 6.205 0.025 7.358-6.605 7.496-7.716 0.017-0.221 0.025-0.198 0 0-0.002 0.021-0.003 0.043-0.005 0.067 1.97-0.356 2.987-1.382 2.987-1.382s1.582 9.134 7.441 9.031c6.084-0.107 7.232-6.101 7.383-7.27 0.020-0.277 0.032-0.245 0 0-0.001 0.012-0.002 0.022-0.002 0.034 2.34-0.827 2.955-1.658 2.955-1.658s1.257 8.952 7.441 9.031c5.511 0.070 7.553-5.413 7.565-7.708 0.93 0.010 2.649-0.536 2.608-0.567 0 0 2.019 7.827 7.655 8.229 2.647 0.189 4.632-1.447 5.764-2.193 2.659 2.093 11.517 4.766 17.107-4.447 0.79-1.322-0.907-2.884-1.205-3.088zM7.563 28.678c-2.702 0-4.435-2.428-4.435-5.045s1.59-5.045 4.292-5.045c1.216 0 1.892 0.13 2.839 0.93 0.172 0.657 0.658 2.174 0.895 2.863 0.317 0.921 0.694 1.706 1.075 2.56-0.544 2.19-2.326 3.737-4.667 3.737zM14.147 19.595c-0.112-0.174-0.089-0.067-0.215-0.231-0.495-1.309-1.45-4.231-1.56-7.551-0.125-3.754 0.519-8.155 2.418-8.155 1.286 0 2.654 8.919-0.643 15.938zM52.192 15.683c-0.305-2.228-0.321-12.161 2.133-11.887 1.355 0.533-0.859 9.906-2.133 11.887zM70.111 15.683c-0.305-2.228-0.321-12.161 2.133-11.887 1.355 0.533-0.859 9.906-2.133 11.887zM87.887 15.821c-0.305-2.228-0.321-12.161 2.133-11.887 1.355 0.533-0.859 9.906-2.133 11.887zM107.512 3.214c2.244-0.226 2.151 9.294-2.352 15.305-0.581-2.172-1.471-14.559 2.352-15.305zM116.943 23.7c-0.721-3.537 1.141-5.86 3.061-6.115 0.671-0.104 1.643 0.318 1.837 1.108 0.319 1.488-0.046 3.695-4.342 6.496 0.006 0.024-0.395-0.701-0.555-1.489z"></path>
        </symbol>
        <symbol id="slack" viewBox="0 0 130 32">
            <path fill="#a7aab4" style="fill: var(--color3, #a7aab4)" d="M41.343 25.079l1.614-3.652c1.744 1.268 4.061 1.927 6.352 1.927 1.692 0 2.76-0.634 2.76-1.598-0.026-2.688-10.127-0.583-10.206-7.329-0.026-3.423 3.098-6.061 7.524-6.061 2.63 0 5.259 0.634 7.133 2.079l-1.51 3.728c-1.718-1.065-3.853-1.826-5.884-1.826-1.38 0-2.291 0.634-2.291 1.445 0.026 2.637 10.206 1.192 10.31 7.633 0 3.5-3.046 5.959-7.42 5.959-3.202 0-6.144-0.735-8.383-2.308zM103.279 20.109l4.452 2.409c-1.666 2.916-4.842 4.869-8.513 4.869-5.389 0-9.763-4.26-9.763-9.509s4.374-9.509 9.763-9.509c3.645 0 6.847 1.978 8.513 4.869l-4.452 2.409c-0.807-1.369-2.317-2.308-4.061-2.308-2.578 0-4.66 2.029-4.66 4.539s2.083 4.539 4.66 4.539c1.744 0 3.254-0.938 4.061-2.308zM59.385 0.482h5.571v26.55h-5.571v-26.55zM109.918 0.482h5.572v15.595l6.301-7.329h6.821l-7.784 8.825 8.409 9.459h-7.134l-6.613-7.962v7.962h-5.572v-26.55zM81.514 20.16v-4.488c-0.807-1.319-2.473-2.333-4.348-2.333-2.577 0-4.66 2.029-4.66 4.539s2.083 4.539 4.66 4.539c1.874 0 3.541-0.964 4.348-2.257zM81.514 8.749h5.571v18.258h-5.571v-2.155c-0.911 1.496-3.176 2.536-5.545 2.536-4.894 0-8.748-4.26-8.748-9.535s3.853-9.484 8.748-9.484c2.369 0 4.634 1.040 5.545 2.536v-2.155z"></path>
            <path fill="#a7aab4" style="fill: var(--color3, #a7aab4)" d="M6.899 20.134c0 1.851-1.536 3.347-3.437 3.347s-3.437-1.496-3.437-3.347c0-1.851 1.536-3.347 3.437-3.347h3.437v3.347zM8.617 20.134c0-1.851 1.536-3.347 3.437-3.347s3.437 1.496 3.437 3.347v8.368c0 1.851-1.536 3.347-3.437 3.347s-3.437-1.496-3.437-3.347v-8.368z"></path>
            <path fill="#a7aab4" style="fill: var(--color3, #a7aab4)" d="M12.054 6.695c-1.901 0-3.437-1.496-3.437-3.347s1.536-3.347 3.437-3.347c1.901 0 3.437 1.496 3.437 3.347v3.347h-3.437zM12.054 8.394c1.901 0 3.437 1.496 3.437 3.347s-1.536 3.347-3.437 3.347h-8.617c-1.901 0-3.437-1.496-3.437-3.347s1.536-3.347 3.437-3.347h8.617z"></path>
            <path fill="#a7aab4" style="fill: var(--color3, #a7aab4)" d="M25.826 11.741c0-1.851 1.536-3.347 3.437-3.347s3.437 1.496 3.437 3.347c0 1.851-1.536 3.347-3.437 3.347h-3.437v-3.347zM24.108 11.741c0 1.851-1.536 3.347-3.436 3.347s-3.437-1.496-3.437-3.347v-8.394c0-1.851 1.536-3.347 3.437-3.347s3.436 1.496 3.436 3.347v8.394z"></path>
        <path fill="#a7aab4" style="fill: var(--color3, #a7aab4)" d="M20.671 25.156c1.9 0 3.436 1.496 3.436 3.347s-1.536 3.347-3.436 3.347c-1.901 0-3.437-1.496-3.437-3.347v-3.347h3.437zM20.671 23.482c-1.901 0-3.437-1.496-3.437-3.347s1.536-3.347 3.437-3.347h8.617c1.9 0 3.437 1.496 3.437 3.347s-1.536 3.347-3.437 3.347h-8.617z"></path>
        </symbol>
        <symbol id="behance" viewBox="0 0 136 32">
            <path fill="#a7aab4" style="fill: var(--color3, #a7aab4)" d="M14.2 20.216c0.507 0 0.989-0.047 1.442-0.153 0.459-0.105 0.867-0.271 1.211-0.517 0.344-0.236 0.629-0.56 0.836-0.972 0.207-0.408 0.307-0.938 0.307-1.579 0-1.255-0.339-2.147-1.012-2.688-0.675-0.534-1.575-0.799-2.682-0.799h-5.591v6.709h5.488zM13.917 9.845c0.911 0 1.665-0.226 2.262-0.684 0.592-0.45 0.879-1.194 0.879-2.216 0-0.566-0.096-1.035-0.287-1.399-0.198-0.364-0.46-0.649-0.792-0.847-0.329-0.207-0.701-0.351-1.133-0.427-0.423-0.087-0.867-0.12-1.322-0.12h-4.811v5.693h5.204zM14.582 0.002c1.117 0 2.125 0.101 3.046 0.309 0.916 0.203 1.698 0.541 2.359 1.006 0.651 0.463 1.16 1.081 1.525 1.858 0.356 0.766 0.535 1.724 0.535 2.859 0 1.227-0.267 2.251-0.801 3.069-0.538 0.818-1.328 1.488-2.383 2.009 1.438 0.431 2.502 1.191 3.208 2.269 0.709 1.086 1.056 2.387 1.056 3.91 0 1.236-0.227 2.299-0.679 3.193-0.458 0.906-1.080 1.64-1.847 2.206-0.773 0.572-1.662 0.991-2.657 1.264-0.984 0.273-2.006 0.41-3.053 0.41h-11.32v-24.362h11.011z"></path>
            <path fill="#a7aab4" style="fill: var(--color3, #a7aab4)" d="M35.794 10.867c-0.552-0.637-1.487-0.982-2.628-0.982-0.742 0-1.357 0.13-1.848 0.396-0.481 0.262-0.875 0.588-1.176 0.972-0.3 0.39-0.505 0.802-0.623 1.242-0.119 0.429-0.19 0.819-0.212 1.163h7.558c-0.111-1.236-0.516-2.149-1.071-2.791zM30.457 20.134c0.695 0.709 1.701 1.066 3.004 1.066 0.936 0 1.746-0.247 2.425-0.74 0.673-0.491 1.083-1.018 1.242-1.563h4.090c-0.657 2.123-1.655 3.639-3.016 4.551-1.344 0.917-2.985 1.374-4.896 1.374-1.332 0-2.531-0.226-3.607-0.668-1.076-0.449-1.975-1.078-2.731-1.897-0.737-0.823-1.309-1.797-1.717-2.939-0.404-1.137-0.608-2.396-0.608-3.761 0-1.319 0.212-2.551 0.624-3.69 0.422-1.143 1.005-2.129 1.771-2.956 0.769-0.832 1.68-1.488 2.74-1.967s2.231-0.718 3.527-0.718c1.431 0 2.684 0.287 3.758 0.872 1.071 0.576 1.948 1.358 2.638 2.337s1.179 2.095 1.486 3.348c0.303 1.252 0.411 2.559 0.323 3.928h-12.203c0 1.394 0.452 2.714 1.15 3.423z"></path>
            <path fill="#a7aab4" style="fill: var(--color3, #a7aab4)" d="M48.107 0.002v9.186h0.106c0.59-1.022 1.336-1.765 2.253-2.226 0.915-0.464 1.808-0.694 2.678-0.694 1.241 0 2.257 0.17 3.051 0.521 0.795 0.357 1.423 0.84 1.884 1.468 0.451 0.625 0.771 1.389 0.958 2.288 0.184 0.897 0.279 1.887 0.279 2.979v10.84h-4.667v-9.96c0-1.452-0.217-2.544-0.65-3.258-0.434-0.715-1.203-1.074-2.314-1.074-1.256 0-2.164 0.397-2.726 1.18-0.573 0.783-0.85 2.073-0.85 3.868v9.244h-4.666v-24.362h4.666z"></path>
            <path fill="#a7aab4" style="fill: var(--color3, #a7aab4)" d="M71.773 16.17c-0.289 0.1-0.609 0.184-0.939 0.257-0.341 0.068-0.696 0.122-1.065 0.17-0.365 0.046-0.741 0.099-1.106 0.167-0.348 0.071-0.695 0.16-1.026 0.276-0.337 0.115-0.632 0.267-0.875 0.46-0.252 0.195-0.452 0.439-0.606 0.733-0.149 0.294-0.229 0.676-0.229 1.128 0 0.431 0.080 0.795 0.229 1.093 0.153 0.296 0.354 0.527 0.617 0.698s0.57 0.291 0.913 0.358c0.348 0.072 0.707 0.099 1.075 0.099 0.913 0 1.618-0.158 2.12-0.476 0.499-0.319 0.875-0.7 1.11-1.144 0.239-0.444 0.384-0.892 0.431-1.343 0.061-0.454 0.089-0.821 0.089-1.095v-1.812c-0.201 0.186-0.438 0.329-0.737 0.431zM62.631 9.306c0.473-0.75 1.082-1.358 1.823-1.812 0.741-0.459 1.57-0.782 2.501-0.975 0.928-0.199 1.855-0.292 2.797-0.292 0.847 0 1.704 0.061 2.586 0.187 0.868 0.125 1.662 0.37 2.382 0.735 0.719 0.367 1.305 0.87 1.759 1.525 0.46 0.639 0.694 1.505 0.694 2.578v9.194c0 0.799 0.046 1.559 0.128 2.286 0.092 0.734 0.331 1.284 0.556 1.645l-4.745-0.012c-0.139-0.211-0.254-0.541-0.309-0.829-0.055-0.281-0.093-0.571-0.114-0.868-0.739 0.797-1.605 1.358-2.614 1.678-1.001 0.315-2.022 0.476-3.070 0.476-0.803 0-1.552-0.106-2.253-0.312-0.69-0.205-1.303-0.524-1.825-0.954-0.525-0.439-0.929-0.983-1.223-1.641-0.293-0.662-0.443-1.451-0.443-2.361 0-1.005 0.173-1.832 0.514-2.479 0.333-0.648 0.764-1.168 1.305-1.554 0.531-0.389 1.141-0.681 1.832-0.871 0.685-0.192 1.38-0.351 2.069-0.463 0.7-0.112 1.381-0.203 2.061-0.273 0.682-0.069 1.273-0.168 1.8-0.307 0.521-0.135 0.937-0.34 1.243-0.6 0.301-0.261 0.445-0.64 0.425-1.145 0-0.522-0.089-0.938-0.249-1.249-0.161-0.306-0.38-0.542-0.647-0.714-0.274-0.172-0.583-0.285-0.938-0.345-0.362-0.055-0.745-0.085-1.154-0.085-0.909 0-1.628 0.211-2.138 0.616-0.524 0.417-0.826 1.104-0.919 2.062h-4.66c0.067-1.144 0.337-2.089 0.825-2.839z"></path>
            <path fill="#a7aab4" style="fill: var(--color3, #a7aab4)" d="M84.14 6.73v2.459h0.104c0.588-1.022 1.346-1.765 2.288-2.226 0.934-0.464 1.901-0.694 2.882-0.694 1.246 0 2.269 0.17 3.059 0.521 0.804 0.357 1.43 0.84 1.884 1.468 0.464 0.625 0.784 1.389 0.97 2.288 0.188 0.897 0.281 1.887 0.281 2.979v10.84h-4.669v-9.96c0-1.452-0.219-2.544-0.654-3.258-0.442-0.715-1.204-1.174-2.322-1.174-1.264 0-2.184 0.497-2.75 1.28-0.569 0.784-0.851 2.073-0.851 3.868v9.244h-4.619v-17.635h4.399z"></path>
            <path fill="#a7aab4" style="fill: var(--color3, #a7aab4)" d="M105.942 9.884c-0.747 0-1.364 0.172-1.86 0.529-0.506 0.356-0.919 0.808-1.235 1.367-0.317 0.556-0.536 1.171-0.672 1.845-0.126 0.673-0.197 1.339-0.197 2.001 0 0.64 0.071 1.289 0.197 1.951 0.136 0.659 0.344 1.253 0.639 1.796 0.299 0.531 0.696 0.968 1.198 1.313 0.499 0.343 1.107 0.514 1.828 0.514 1.118 0 1.975-0.326 2.575-0.97 0.598-0.648 0.968-1.52 1.124-2.612h4.486c-0.308 2.34-1.18 4.127-2.617 5.359-1.441 1.224-3.286 1.845-5.533 1.845-1.27 0-2.424-0.226-3.488-0.668-1.062-0.449-1.964-1.067-2.708-1.864-0.743-0.799-1.32-1.749-1.742-2.854-0.412-1.106-0.62-2.321-0.62-3.639 0-1.365 0.192-2.637 0.574-3.813 0.38-1.171 0.943-2.186 1.692-3.037 0.742-0.857 1.651-1.523 2.724-2.002 1.069-0.478 2.292-0.718 3.664-0.718 1.004 0 1.967 0.142 2.899 0.406 0.924 0.27 1.755 0.687 2.484 1.247 0.731 0.556 1.329 1.249 1.788 2.075 0.453 0.826 0.712 1.816 0.784 2.947h-4.555c-0.301-2.013-1.446-3.018-3.431-3.018z"></path>
            <path fill="#a7aab4" style="fill: var(--color3, #a7aab4)" d="M28.357 1.637h9.467v2.404h-9.467v-2.404z"></path>
            <path fill="#a7aab4" style="fill: var(--color3, #a7aab4)" d="M126.404 10.867c-0.56-0.637-1.502-0.982-2.628-0.982-0.741 0-1.357 0.13-1.858 0.396-0.482 0.262-0.921 0.588-1.217 0.972-0.295 0.39-0.507 0.802-0.63 1.242-0.11 0.429-0.188 0.819-0.208 1.163h7.615c-0.124-1.236-0.52-2.149-1.074-2.791zM121.010 20.134c0.698 0.709 1.751 1.066 3.064 1.066 0.934 0 1.742-0.247 2.417-0.74 0.676-0.491 1.093-1.018 1.243-1.563h4.090c-0.653 2.123-1.657 3.639-3.010 4.551-1.349 0.917-2.983 1.374-4.901 1.374-1.336 0-2.539-0.226-3.607-0.668-1.074-0.449-1.974-1.078-2.727-1.897-0.745-0.823-1.316-1.797-1.722-2.939-0.404-1.137-0.604-2.396-0.604-3.761 0-1.319 0.208-2.551 0.621-3.69 0.419-1.143 1.013-2.129 1.775-2.956 0.772-0.832 1.676-1.488 2.733-1.967 1.062-0.478 2.242-0.718 3.531-0.718 1.428 0 2.687 0.287 3.75 0.872 1.073 0.576 1.955 1.358 2.639 2.337 0.69 0.978 1.185 2.095 1.49 3.348 0.3 1.252 0.414 2.559 0.329 3.928h-12.257c0 1.394 0.446 2.714 1.147 3.423z"></path>
        </symbol>
        <symbol id="dribbble" viewBox="0 0 32 32">
            <path fill="#fff" style="fill: var(--color2, #fff)" d="M26.828 9.064c-1.133-1.964-2.764-3.594-4.728-4.727-1.991-1.16-4.163-1.74-6.517-1.74s-4.527 0.58-6.519 1.74c-1.991 1.16-3.567 2.736-4.727 4.727s-1.74 4.164-1.74 6.519c0 2.354 0.579 4.528 1.74 6.519 1.133 1.964 2.764 3.594 4.728 4.727 1.991 1.16 4.163 1.74 6.517 1.74s4.527-0.58 6.519-1.74c1.964-1.133 3.595-2.763 4.728-4.727 1.16-1.991 1.739-4.164 1.739-6.519s-0.579-4.528-1.74-6.519zM15.583 4.753c2.597 0 4.898 0.831 6.908 2.492-1.195 1.524-2.968 2.779-5.324 3.766-1.301-2.354-2.711-4.32-4.235-5.895 0.863-0.239 1.755-0.361 2.65-0.362zM7.155 8.83c0.95-1.206 2.151-2.19 3.52-2.883 1.574 1.56 3.019 3.506 4.337 5.843-2.597 0.779-5.342 1.169-8.234 1.169-0.744 0-1.306-0.017-1.688-0.052 0.398-1.488 1.101-2.876 2.065-4.077zM4.753 15.583c0-0.070 0.004-0.156 0.013-0.26s0.013-0.19 0.013-0.26c0.33 0.018 0.832 0.026 1.508 0.026 3.462 0 6.682-0.477 9.66-1.428 0.243 0.484 0.495 1.030 0.753 1.636-1.714 0.381-3.472 1.306-5.273 2.779s-3.115 3.022-3.946 4.649c-1.818-2.061-2.727-4.441-2.727-7.142zM15.583 26.413c-2.459 0-4.667-0.762-6.624-2.284 0.78-1.541 1.979-3.015 3.598-4.416 1.618-1.402 3.224-2.276 4.818-2.623 1.005 2.778 1.685 5.662 2.026 8.596-1.217 0.475-2.511 0.722-3.818 0.727zM24.776 21.27c-0.85 1.369-1.994 2.532-3.35 3.404-0.312-2.701-0.909-5.333-1.791-7.896 1.21-0.086 2.292-0.13 3.246-0.13 1.038 0 2.189 0.044 3.453 0.13-0.169 1.597-0.703 3.134-1.558 4.493zM23.166 14.778c-1.506 0-2.9 0.061-4.181 0.182-0.271-0.711-0.566-1.412-0.883-2.104 2.683-1.177 4.586-2.605 5.712-4.285 1.558 1.836 2.407 3.931 2.545 6.285-1.054-0.052-2.119-0.078-3.193-0.078z"></path>
        </symbol>
        <symbol id="linkedin" viewBox="0 0 32 32">
            <path fill="#fff" style="fill: var(--color2, #fff)" d="M6.471 9.345c1.569 0 2.841-1.272 2.841-2.841s-1.272-2.841-2.841-2.841c-1.569 0-2.841 1.272-2.841 2.841s1.272 2.841 2.841 2.841z"></path>
            <path fill="#fff" style="fill: var(--color2, #fff)" d="M11.995 11.499v15.763h4.894v-7.795c0-2.057 0.387-4.049 2.937-4.049 2.515 0 2.546 2.352 2.546 4.179v7.667h4.897v-8.644c0-4.246-0.914-7.51-5.877-7.51-2.383 0-3.98 1.308-4.633 2.545h-0.066v-2.156h-4.698zM4.019 11.499h4.902v15.763h-4.902v-15.763z"></path>
        </symbol>
        <symbol id="meta" viewBox="0 0 32 32">
            <path fill="#fff" style="fill: var(--color2, #fff)" d="M17.397 27.266v-10.643h3.591l0.534-4.167h-4.124v-2.654c0-1.202 0.335-2.026 2.061-2.026h2.187v-3.715c-1.064-0.114-2.133-0.169-3.203-0.165-3.174 0-5.353 1.937-5.353 5.494v3.058h-3.567v4.167h3.575v10.651h4.301z"></path>
        </symbol>
        <symbol id="insta" viewBox="0 0 32 32">
            <path fill="#fff" style="fill: var(--color2, #fff)" d="M15.581 9.579c-1.592 0-3.12 0.633-4.246 1.759s-1.759 2.653-1.759 4.246c0 1.593 0.633 3.12 1.759 4.246s2.653 1.759 4.246 1.759 3.12-0.633 4.246-1.759c1.126-1.126 1.759-2.653 1.759-4.246s-0.633-3.12-1.759-4.246c-1.126-1.126-2.653-1.759-4.246-1.759zM15.581 19.484c-1.035 0-2.027-0.411-2.758-1.143s-1.143-1.724-1.143-2.758c0-1.035 0.411-2.027 1.143-2.758s1.724-1.143 2.758-1.143c1.035 0 2.027 0.411 2.758 1.143s1.143 1.724 1.143 2.758c0 1.035-0.411 2.027-1.143 2.758s-1.724 1.143-2.758 1.143z"></path>
            <path fill="#fff" style="fill: var(--color2, #fff)" d="M21.823 10.759c0.773 0 1.4-0.627 1.4-1.4s-0.627-1.4-1.4-1.4c-0.773 0-1.4 0.627-1.4 1.4s0.627 1.4 1.4 1.4z"></path>
            <path fill="#fff" style="fill: var(--color2, #fff)" d="M26.663 7.935c-0.301-0.776-0.76-1.481-1.349-2.070s-1.294-1.048-2.070-1.348c-0.909-0.341-1.868-0.525-2.839-0.545-1.25-0.055-1.647-0.070-4.818-0.070s-3.578 0-4.818 0.070c-0.97 0.019-1.929 0.203-2.836 0.545-0.777 0.3-1.482 0.759-2.071 1.348s-1.048 1.294-1.348 2.070c-0.341 0.908-0.525 1.868-0.544 2.839-0.056 1.249-0.073 1.645-0.073 4.818 0 3.171 0 3.575 0.073 4.818 0.019 0.971 0.203 1.93 0.544 2.84 0.301 0.776 0.761 1.481 1.35 2.070s1.294 1.048 2.071 1.348c0.906 0.355 1.865 0.552 2.837 0.584 1.251 0.055 1.647 0.071 4.818 0.071s3.577 0 4.818-0.071c0.97-0.020 1.93-0.204 2.839-0.544 0.776-0.301 1.481-0.761 2.070-1.349s1.048-1.294 1.349-2.070c0.341-0.909 0.525-1.867 0.544-2.839 0.056-1.249 0.073-1.645 0.073-4.818s0-3.575-0.073-4.818c-0.015-0.984-0.2-1.958-0.547-2.879zM25.081 20.313c-0.008 0.748-0.145 1.49-0.404 2.192-0.195 0.505-0.494 0.964-0.876 1.346s-0.842 0.681-1.347 0.876c-0.695 0.258-1.428 0.394-2.169 0.404-1.234 0.057-1.582 0.072-4.745 0.072-3.166 0-3.489 0-4.746-0.072-0.74-0.009-1.473-0.146-2.167-0.404-0.507-0.194-0.967-0.491-1.352-0.874s-0.684-0.842-0.88-1.348c-0.255-0.695-0.392-1.427-0.404-2.167-0.056-1.234-0.069-1.582-0.069-4.745 0-3.165 0-3.488 0.069-4.746 0.008-0.748 0.145-1.489 0.404-2.191 0.396-1.025 1.208-1.831 2.232-2.223 0.694-0.257 1.427-0.394 2.167-0.404 1.235-0.056 1.582-0.071 4.746-0.071s3.489 0 4.745 0.071c0.741 0.009 1.474 0.146 2.169 0.404 0.505 0.195 0.964 0.494 1.346 0.877s0.681 0.842 0.877 1.347c0.255 0.695 0.392 1.427 0.404 2.167 0.056 1.235 0.070 1.582 0.070 4.746 0 3.163 0 3.503-0.056 4.745h-0.014v-0.001z"></path>
        </symbol>
    </defs>
</svg>
